<?xml version="1.0" standalone="no"?><!DOCTYPE svg PUBLIC "-//W3C//DTD SVG 1.1//EN" "http://www.w3.org/Graphics/SVG/1.1/DTD/svg11.dtd"><svg t="1693432257567" class="icon" viewBox="0 0 1024 1024" version="1.1" xmlns="http://www.w3.org/2000/svg" p-id="1297" xmlns:xlink="http://www.w3.org/1999/xlink" width="200" height="200"><path d="M182 12.8h660.4c98.8 0 182 79.6 182 182v634.8c0 98.8-79.6 182-182 182H182c-99.2-0.4-182-80-182-182V194.4C0 92.4 79.6 12.8 182 12.8z" fill="#B30B00" p-id="1298"></path><path d="M816.8 590c-48-51.2-178.8-28.8-210.4-25.6-44.8-44.8-76.4-95.6-89.2-114.8 16-48 28.8-102 28.8-153.2 0-48-19.2-95.6-70-95.6-19.2 0-35.2 9.6-44.8 25.6-22.4 38.4-12.8 114.8 22.4 194.4-19.2 57.6-51.2 143.6-89.2 210.4-51.2 19.2-162.8 70-172.4 127.6-3.2 16 3.2 35.2 16 44.8 12.8 12.8 28.8 16 44.8 16 66.8 0 134-92.4 182-175.6 38.4-12.8 98.8-32 159.6-41.6 70 64 134 73.2 166 73.2 44.8 0 60.8-19.2 66.8-35.2 8.4-15.2 2.4-37.6-10.4-50.4z m-44.8 32c-3.2 12.8-19.2 25.6-48 19.2-35.2-9.6-66.8-25.6-92.4-48 22.4-3.2 76.4-9.6 114.8-3.2 12.8 3.2 28.8 12.8 25.6 32z m-309.6-382.8c3.2-6.4 9.6-9.6 16-9.6 16 0 19.2 19.2 19.2 35.2-3.2 38.4-9.6 79.6-22.4 114.8-25.6-70-22.4-121.2-12.8-140.4z m-3.2 360.4c16-28.8 35.2-82.8 41.6-102 16 28.8 44.8 60.8 57.6 76.4 3.2-2.8-54.4 9.6-99.2 25.6z m-108.4 73.6C306.4 743.2 264.8 788 239.2 788c-3.2 0-9.6 0-12.8-3.2-3.2-6.4-6.4-12.8-3.2-19.2 3.2-25.6 54.4-60.8 127.6-92.4z" fill="#FFFFFF" p-id="1299"></path></svg>