<?xml version="1.0" standalone="no"?><!DOCTYPE svg PUBLIC "-//W3C//DTD SVG 1.1//EN" "http://www.w3.org/Graphics/SVG/1.1/DTD/svg11.dtd"><svg t="1693501932580" class="icon" viewBox="0 0 1024 1024" version="1.1" xmlns="http://www.w3.org/2000/svg" p-id="1836" xmlns:xlink="http://www.w3.org/1999/xlink" width="200" height="200"><path d="M64 64m102.4 0l691.2 0q102.4 0 102.4 102.4l0 691.2q0 102.4-102.4 102.4l-691.2 0q-102.4 0-102.4-102.4l0-691.2q0-102.4 102.4-102.4Z" fill="#2E0013" p-id="1837"></path><path d="M857.6 983.04H166.4a125.5808 125.5808 0 0 1-125.44-125.44V166.4a125.5808 125.5808 0 0 1 125.44-125.44h691.2a125.5808 125.5808 0 0 1 125.44 125.44v691.2a125.5808 125.5808 0 0 1-125.44 125.44zM166.4 87.04a79.4496 79.4496 0 0 0-79.36 79.36v691.2a79.4496 79.4496 0 0 0 79.36 79.36h691.2a79.4496 79.4496 0 0 0 79.36-79.36V166.4a79.4496 79.4496 0 0 0-79.36-79.36z" fill="#FF3F94" p-id="1838"></path><path d="M320.256 325.632h64V691.2h-64zM703.744 691.2h-55.296v-35.84h-1.024c-15.36 30.208-48.64 43.008-81.92 43.008-83.456 0-123.904-61.952-123.904-141.312 0-95.744 56.832-137.728 114.688-137.728 33.28 0 70.144 12.288 88.064 41.472h1.024V325.632h58.368z m-130.56-38.912c52.224 0 74.24-47.616 74.24-93.696 0-58.368-28.16-93.184-73.216-93.184-54.784 0-74.24 48.64-74.24 96.256 0 45.568 22.528 90.624 73.216 90.624z" fill="#FF3F94" p-id="1839"></path></svg>