<?xml version="1.0" standalone="no"?><!DOCTYPE svg PUBLIC "-//W3C//DTD SVG 1.1//EN" "http://www.w3.org/Graphics/SVG/1.1/DTD/svg11.dtd"><svg t="1692467672594" class="icon" viewBox="0 0 1024 1024" version="1.1" xmlns="http://www.w3.org/2000/svg" p-id="2809" xmlns:xlink="http://www.w3.org/1999/xlink" width="200" height="200"><path d="M890.647853 172.279738c-5.306866-17.61724-0.020466-56.184627-3.022847-80.70509-3.009544-24.517393-27.379581-82.012875-33.939997-80.102363-6.554276 1.911536-2.336208 34.739199 2.561335 52.973492 4.897543 18.238386 16.752546 120.633475 10.277064 120.385834-6.468318-0.24457-46.633087-130.412189-54.831816-128.693034-8.203846 1.723248 17.934464 82.923618 24.092721 114.807792 6.158257 31.887244 12.745279 109.167329-16.818037 111.091144-29.564339 1.920746-31.445176-55.474452-35.992749-69.505004-4.547573-14.029528-26.606984-65.586764-39.313378-62.385862-12.706393 3.201925 34.389228 84.824921 6.758937 106.141412-27.637454 21.316491-142.896524-89.341794-125.273145-53.976332 37.563524 69.171406 174.903495 132.392286 184.692443 135.689379 9.788947 3.294023 4.832052 43.399439-29.220508 59.643402-55.280024 19.627013-115.128087 55.732325-143.537114 70.791299-28.415167 15.059997-30.316469-45.0091-31.465642-58.144258-1.155313-13.135158-9.55768-32.778544-11.789511-40.87085-2.236947-8.092305-5.702885-27.164686-9.695826-25.791409-3.993964 1.372254-4.646833 18.634406-2.284019 29.91124 2.362814 11.277858 0.692778 51.758828-3.927449 73.066109-4.626367 21.306258 1.340531 44.666292-2.224668 58.259892-1.840928 7.003508-11.993149 16.310477-21.411659 23.696702-6.066159-1.261737-9.214872 0.765433-12.633738 5.118578-6.441713 8.191566-20.276812 6.370081-29.933753 6.370081s-23.49818 1.821485-29.933753-6.370081c-3.333932-4.237511-6.40999-6.264681-12.171204-5.201465-9.385764-7.372921-19.47147-16.639982-21.300119-23.613814-3.570315-13.5936 2.402723-36.953633-2.224668-58.259892-4.626367-21.307282-6.296403-61.788252-3.927449-73.066109 2.362814-11.276834 1.708921-28.537963-2.284019-29.91124-3.992941-1.372254-7.465019 17.700127-9.69685 25.791409-2.230808 8.092305-10.633175 27.735691-11.788487 40.87085-1.14815 13.135158-3.056616 73.204256-31.465642 58.144258-28.415167-15.058974-88.26323-51.164287-143.537114-70.791299-34.05256-16.243963-39.016619-56.349379-29.227672-59.643402 9.788947-3.297093 147.134035-66.517973 184.698582-135.689379 17.624403-35.366486-97.642854 75.292823-125.272122 53.976332-27.630291-21.316491 19.464307-102.939487 6.758937-106.141412-12.706393-3.200902-34.765805 48.356334-39.313378 62.385862-4.554736 14.029528-6.429433 71.425749-35.992749 69.505004-29.564339-1.923816-22.977317-79.2039-16.825201-111.091144 6.158257-31.884175 32.296567-113.085568 24.098861-114.807792-8.197706-1.719154-48.362474 128.448464-54.837956 128.693034-6.468318 0.24764 5.386684-102.147448 10.284227-120.385834 4.897543-18.234293 9.109472-51.061956 2.555196-52.973492-6.5553-1.910513-30.930453 55.583946-33.933857 80.102363-3.003404 24.521486 2.276856 63.088874-3.022847 80.70509-5.300726 17.61417-4.666276 80.890308-0.554632 102.088096 4.112668 21.198811 3.874237 68.240197 2.969635 87.847767-0.904603 19.61064 29.107945 56.768935 72.138994 82.923618 43.029002 26.151613 160.65191 57.260122 191.595666 86.587054 10.640338 10.079566 17.643845 17.372669 21.366633 23.708981-3.690042 3.464915-4.099365 5.828752-4.099365 8.881274 0 6.066159 8.046257 25.174356-18.666128 3.943822-26.719548-21.234627-27.03575-24.264637-93.015464-35.184337-65.979714-10.920724-22.851451 36.096103-9.980305 58.541301 12.878309 22.445198 18.343787 40.339754 58.897412 53.381791s68.237127-4.547573 68.237127 8.191566c0 12.739139 6.758937 45.798069 5.465478 48.52825-1.287319 2.732228-46.666856 157.728324-46.666856 170.771385s37.33328 123.755582 130.672108 123.755582c93.339852 0 130.672108-110.712521 130.672108-123.755582s-45.385677-168.038134-46.672996-170.771385c-1.287319-2.729158 5.471618-35.788088 5.471618-48.52825 0-12.739139 27.682479 4.851495 68.230987-8.191566 40.554648-13.043061 46.026266-30.936593 58.904575-53.381791 12.871145-22.445198 55.999408-69.462025-9.980305-58.541301-65.979714 10.920724-66.303079 13.950733-93.015464 35.184337-26.712385 21.230534-18.666128 2.122337-18.666128-3.943822 0-2.944052-0.388856-5.247514-3.722788-8.518001 3.663436-6.42227 10.719132-13.798261 21.564132-24.072255 30.943756-29.326932 148.566664-60.435441 191.596689-86.587054 43.022862-26.155706 73.042573-63.312978 72.138994-82.923618-0.904603-19.60757-1.14201-66.649979 2.969635-87.847767C895.314129 253.170047 895.948579 189.893908 890.647853 172.279738z" fill="#695641" p-id="2810"></path></svg>